<?xml version="1.0" encoding="utf-8"?>
<!-- Generator: Adobe Illustrator 19.0.0, SVG Export Plug-In . SVG Version: 6.00 Build 0)  -->
<svg version="1.1" id="Livello_1" xmlns="http://www.w3.org/2000/svg" xmlns:xlink="http://www.w3.org/1999/xlink" x="0px" y="0px"
	 viewBox="77 170.9 750 500" style="enable-background:new 77 170.9 750 500;" xml:space="preserve">
<style type="text/css">
	.st0{fill:#FCD9E0;}
	.st1{clip-path:url(#SVGID_2_);}
	.st2{fill:#FFFFFF;}
	.st3{opacity:0.2;fill:#F48CBC;enable-background:new    ;}
	.st4{opacity:0.72;}
	.st5{opacity:0.2;fill:#FFA6B3;enable-background:new    ;}
	.st6{fill:#003366;}
	.st7{fill:#24377F;}
	.st8{fill:#000033;}
	.st9{fill:#F48CBC;}
	.st10{fill:#000066;}
	.st11{opacity:0.4;fill:#000033;enable-background:new    ;}
</style>
<g id="Background_2">
	<g>
		<rect x="75.4" y="170.9" class="st0" width="750" height="500"/>
		<g>
			<g>
				<g>
					<defs>
						<rect id="SVGID_1_" x="75.4" y="170.9" width="750" height="500"/>
					</defs>
					<clipPath id="SVGID_2_">
						<use xlink:href="#SVGID_1_"  style="overflow:visible;"/>
					</clipPath>
					<g class="st1">
						<path class="st2" d="M629.7,402.3c-7.2,104.5-171.8,165.3-171.8,165.3S288,516.1,272.8,416.4
							C248,253.1,442.6,264.5,449.7,360.6C448.3,264.3,641,237.5,629.7,402.3z"/>
						<g>
							<g>
								<path class="st3" d="M349.9,200c4.1,23.1-28.4,45.2-28.4,45.2s-39.7-2-48.4-22.8c-14.2-34.1,28.7-42.2,35.4-21.7
									C303.1,179.8,343.5,163.6,349.9,200z"/>
							</g>
							<g class="st4">
								<path class="st3" d="M593.8,215.1c-6.9,16.9-37.5,17.9-37.5,17.9S531,215.1,534,197.8c4.9-28.4,36.4-15.8,32.3,0.5
									C571.4,182.3,604.8,188.5,593.8,215.1z"/>
							</g>
							<g>
								<path class="st3" d="M364.8,262.5c-3.6,10.7-22.6,12.6-22.6,12.6S325.8,265,327,254.2c1.9-17.8,22-11.2,20.1-1
									C349.6,243.1,370.6,245.6,364.8,262.5z"/>
							</g>
							<g>
								<path class="st5" d="M434.9,286c-0.4,9.5-15.2,15.4-15.2,15.4s-15.5-4.3-17.1-13.3c-2.6-14.8,15.1-14.2,15.9-5.5
									C418.1,273.9,435.5,271,434.9,286z"/>
							</g>
							<g>
								<path class="st3" d="M519.7,272.9c-7.8,5.4-21.4-3-21.4-3s-5.9-15,0.4-21.7c10.2-10.9,20.4,3.6,13.9,9.5
									C519.4,252.2,532.1,264.4,519.7,272.9z"/>
							</g>
						</g>
						<g>
							<g>
								<path class="st6" d="M368.6,588.5c2.7-1.5,1.3-7.6-2.1-6.5c1.9-3.4,0.4-7.4-3.3-4.8c5.4-2.5,1.1-10.2-4.2-6.8
									c4.4-0.9,0-7.5-2.3-7c3.8-1.5,1.1-7-3-5.5c4.9-0.1,8-3.9,4.9-9.3c-2.4-4.2-8-3.4-9.1,2.4c1.4-4.4-1.6-6.4-5-3.8
									c1.5-2,1.3-5.5-1-5.7c1-1.2,2.6-2.8,2-4.9c-1-3.9-4-1.4-5.5-0.1c2.3-1.5,2.6-3.2,1.5-6.5c-2.7-0.8-4.3-2-4.5,1.9
									c0.1-1.3-0.2-2.5-1.5-3.2c-2-1-1.4-0.8-2.4,1.2c0.3-3.2-1.4-4.8-3.8-3.1c2.5-2.4,1.8-5.8-2-4.4c0,0.3-0.2-1.7-0.3-1.5
									c3.3-4.5,5-3.8,3.2-9.7c-2.9-9.7-11.7-6.9-13.7,1.2c-1.3-4.9-7.4-7.8-8.9-1.6c0.1-2.2,0.8-4.5,0.3-6.9
									c-1.2,0.8-2.5,1.3-3.4,3c6.6-6.5-6.4-8.3-5.8-1.9c-0.5-3.8-5.4-7.3-6.9-2.4c0.4-2.6-0.2-12.9-2.3-7.8
									c-0.5-5.7-1.5-12.2-7.9-13c-3.3-0.4-8.9,2.5-8.3,6.9c0-8.2-7.3-1.2-8,2.6c0.1-1-0.4-2.4-0.5-3.4c-1.4,0.7-2.7,0.6-3.9,2.4
									c0.1-2.8-0.3-5.6-1.8-7.8c-0.6,0.8-1.3,0.7-1.8,2.1c0.6-3.5-0.9-6-3.4-3.7c0.3-6.3-7.7-18.8-11-8.5c0.6-10.6-12-8.6-9.4,0.2
									c-2-3.8-5.9,1.6-5.9,4.6c-0.1-5.8-6.8-2.5-7.3-0.3c0.3-2.9-0.7-7.6-3.5-4.7c0.4-6.5-8-7-11.2-3.6c-2.2,2.4-1.8,7.7-1.3,11.1
									c0.2-1.1-0.9,1.9-0.9,0.9c-2.2,0.9-3,0.3-3.9,3c-1.4-6.9-9.1-3.5-9.3,0.9c1.5-2.9,1.9-12.1-2.7-7.5
									c-0.3-3.8-3.2-4.5-5.4-6.5c-1.5,0.9-2.8,2.4-3.6,4.2c3.8-8.7-6.9-3.8-9.2-1.1c0.5-4.2-3.1-6.9-6.2-7.5c0,1.1,0,2.3,0.3,3.4
									c2.5-2.5,2.1-13-3.2-10.9c1.8-0.6,4.1-3.8,4.3-7c0.3-5.6-1.4-5.9-6.1-6.3c-0.2,1-2.2,0.5-2.2,1.6c0.3-3.2-2-5.1-3.5-4.1
									c-1.2,0.2-2.4,1.8-2.3,2.9c0.1-1.3,0.1-2.5-1.8-3c-2.3,0.7-2.5,2.5-3.6,4.7c2.1-5.3,0.1-8.5-4.9-10.1
									c-2.3-0.6-3.6,0.5-4.3,3c-0.2-3.8-1.3-8.8-4.8-8.8c-3.2,0.1-3,3.1-2.7,6.5c0-1.6-1.8-1.5-2.2-2.9c-1.8,1.8-2.2,3.1-1.7,6.1
									c-0.7-4.6-4.8-2.2-5.7,1.1c-0.6-6-5.2-5.3-5.9-0.6c-0.2-4-0.3-5.9-4-5.7c-3,0.2-1.8,1.6-4.4,3c0.1,2.7-0.6,3.5,1,6.3
									c0-0.2-1.8,3.3-1.7,3.1c-3.7-0.6-3.9,3.1-1.2,5c-4.4-3.4-6,0.3-6,4.9c1.1-7-10.1-9.1-9.6-2.7c2.6-6.7-8.4-8.2-8-2.9
									c0.5-13.4-14.2-2.2-9.3,2.7c0-0.9-2.1,0.2-2.2-0.3c-1.6,2.5-0.9,2-0.4,5.2c-3.3-2.1-2.3,5-1.5,3.2c-2.4,1.3-4.5,1-4.7,4.3
									c-3.4-8.6-7.8-7.3-12.2-0.8c2.3-5.6-4.4-5-4-3.2c0.1-0.4-2.6,0.2-2.5-0.1c-1.2-0.3-1.4,0.7-2.7,0.9l4.7,162.1L368.6,588.5z"
									/>
								<path class="st6" d="M560.4,544.5c-2.4-1.9-0.2-7.7,3-6.2c-1.4-3.6,0.6-7.4,3.9-4.3c-5-3.2,0.4-10.2,5.1-6.1
									c-4.2-1.5,1-7.4,3.2-6.7c-3.5-2-0.1-7.1,3.7-5.1c-4.8-0.7-7.4-5-3.5-9.9c3-3.8,8.4-2.3,8.7,3.6c-0.7-4.6,2.5-6.1,5.5-3
									c-1.2-2.2-0.6-5.6,1.8-5.5c-0.8-1.3-2.2-3.1-1.3-5.2c1.6-3.8,4.2-0.9,5.4,0.7c-2-1.8-2.2-3.5-0.6-6.7
									c2.8-0.4,4.5-1.4,4.2,2.5c0.1-1.3,0.5-2.4,1.9-3c2.1-0.7,1.5-0.6,2.2,1.5c0.1-3.2,2.1-4.6,4.2-2.6c-2.1-2.7-1-6,2.6-4.1
									c-0.1,0.3,0.5-1.6,0.5-1.4c-2.7-4.9-4.4-4.4-1.8-10.1c4.2-9.2,12.5-5.3,13.4,3.1c1.9-4.7,8.4-6.7,9.1-0.4
									c0.2-2.2-0.1-4.6,0.6-6.9c1.1,0.9,2.3,1.6,3,3.4c-5.6-7.3,7.5-7.3,6-1.1c1-3.7,6.4-6.4,7.1-1.4c0-2.6,2-12.7,3.3-7.4
									c1.3-5.6,3.2-11.9,9.6-11.7c3.4,0.1,8.5,3.7,7.2,8c1.1-8.1,7.4-0.1,7.6,3.6c0.1-1,0.7-2.3,0.9-3.3c1.3,0.9,2.6,1,3.6,2.9
									c0.3-2.8,1.1-5.5,2.8-7.5c0.5,0.8,1.2,0.9,1.5,2.3c-0.1-3.6,1.7-5.9,3.9-3.2c0.6-6.3,10.2-17.5,12.1-6.9
									c0.9-10.6,13-6.9,9.3,1.5c2.5-3.5,5.6,2.4,5.2,5.4c0.9-5.7,7.1-1.6,7.3,0.7c0.1-2.9,1.7-7.4,4.2-4.2c0.5-6.5,8.8-5.8,11.5-2
									c1.9,2.6,0.7,7.9-0.3,11.2c-0.1-1.1,0.6,2.1,0.7,1c2,1.2,2.9,0.7,3.5,3.5c2.3-6.6,9.5-2.3,9.1,2.2c-1.1-3-0.2-12.2,3.7-7
									c0.8-3.8,3.7-4,6.3-5.7c1.3,1.1,2.4,2.8,2.9,4.7c-2.6-9.2,7.3-2.8,9.2,0.2c0.1-4.3,4-6.4,7.2-6.5c-0.1,1.1-0.3,2.3-0.8,3.3
									c-2.2-2.9-0.3-13.1,4.6-10.4c-1.7-0.8-3.5-4.4-3.2-7.5c0.4-5.6,2.2-5.6,6.9-5.4c0.1,1,2.1,0.8,2,1.8c0.2-3.2,2.6-4.7,4-3.6
									c1.1,0.4,2.1,2.1,1.9,3.2c0.1-1.3,0.3-2.4,2.2-2.7c2.2,1.1,2.1,2.8,2.9,5.2c-1.3-5.6,1-8.5,6.3-9.4c2.4-0.3,3.5,1,3.8,3.5
									c0.7-3.7,2.5-8.6,6-8c3.2,0.5,2.5,3.5,1.7,6.8c0.2-1.6,2-1.2,2.6-2.5c1.6,2,1.8,3.4,0.8,6.3c1.3-4.5,5-1.6,5.5,1.8
									c1.4-5.9,5.8-4.5,5.9,0.3c0.8-3.9,1.1-5.9,4.8-5.1c2.9,0.6,1.6,1.9,3.9,3.5c-0.4,2.7,0.1,3.6-1.9,6.1
									c0.1-0.2,1.3,3.5,1.3,3.3c3.8-0.1,3.5,3.7,0.5,5.1c4.8-2.7,5.9,1.1,5.2,5.7c-0.1-7.1,11.3-7.6,9.9-1.4c-1.7-7,9.5-7,8.3-1.8
									c1.4-13.3,14.4-0.3,8.8,3.9c0.2-0.9,2,0.5,2.2,0c1.3,2.7,0.6,2.1-0.3,5.2c3.6-1.6,1.6,5.2,1.1,3.4c2.2,1.6,4.3,1.6,4,4.9
									c4.6-8.1,8.7-6.2,12.1,0.9c-1.5-5.8,5-4.4,4.4-2.6c0-0.4,2.6,0.6,2.5,0.2c1.2-0.2,1.3,0.9,2.5,1.3l-27.1,121.5L560.4,544.5z
									"/>
							</g>
							<path class="st7" d="M835.4,570.3l-14,133.6L90,703l-0.4-21.6c60.8-54.1,197.9-105.6,361.8-129.9
								C615.3,527.1,761.5,536.1,835.4,570.3z"/>
							<g>
								<path id="XMLID_160_" class="st8" d="M686.9,638.9c-1.7-4.3,44.1-16.7,51.3-48.7c10-44,29-104.9-0.1-139.2
									s-37.5-41.7-49.7-51.8c-8.7-2.9-18.2-3.1-28-2.8c-10.5,6-28.3,22-41.5,18.6l0,0c14.9-3.5,26.1-12.3,34.8-18.3
									c-21.5,1.1-44.1,2.9-62.6-14.8c14.8,8.4,28.7,10.6,41.9,10.6c-4.8-2.2-9.2-5.5-13-9.1c-4.6-4.4-6-4.8-11.4-7.9
									c5.6,1.3,8.2,2.9,12.6,6.6c5.7,4.8,12.7,9.1,20.2,10.1c12.8-0.7,24.9-2.8,36.3-2.1c-16.2-13.7-30.4-22.3-30.7-22.5
									c-18.7-9-31.2-9.9-52.4-20.9c-1.8-0.9-3.4-1.9-5-2.8c-7.2-2.4-13-2.2-18.3-1.2c-5.9,3.2-7.1,13.9-18.6,15.8l-2.8,0.2
									c0.7-0.2,4.1-1.4,5-1.8c7.2-3.1,8.8-9.2,12.2-13.4c-9.7,2.2-18.8,5.1-34.1-3.8l0,0c26,9.2,34.1-2,49.7-0.9
									c-9.1-8-10.5-17.1-14.2-33.2c3.9,8.4,5.9,14.8,8.7,20c-0.8-5.4-0.4-9.8,2.5-16.4c-0.3,2.8-0.1,1.3-0.5,3.9
									c-1.5,8.3-0.8,10.7,1.3,17.7c3.3,4.2,8,7.8,16.2,11.5c21,9.6,32.9,10.2,50,17.3l0,0c0,0,11.5,4.1,13.1,5.2
									c-4.3-9.6-6.6-25.6-14.9-32c-3.8-2.9-8.2-4.4-13.2-5.3c-4.2,0.8-12.3,4.9-14.7,5.9c-3.9,1.6-10.5,4-14.7,2.6l-1.9-0.9l0,0
									l2,0.4c5.4,0.7,11.7-2.4,16.5-4.7c1.9-0.9,5-2.7,8-4c-10.9-1.4-16.9-0.5-31.7-8.2c23.5,9.2,36.1,1.7,49.9,10.6
									c-7.4-13.4-18.6-20.7-28.4-25.6l-7.1-3.7c6.7,1.3,12.4,3.4,17.3,6.1c-8.7-12-8.9-18.2-11.2-42.1l0,0
									c4.4,20.5,4.9,27.2,10.9,36.2c-0.7-5.9-0.2-14.5,0.5-18.1l0,0c0.4,3,0.3,6.1,0.5,9.1c0.2,4.1,0,10.5,2.7,13.7
									c1,1.2,1.5,1.8,1.9,2.5c2.1,2.5,4.6,5.3,7.6,8.7c0.5,0.5,1,1,1.4,1.6l0.1,0.2c0.1,0.1,0.1,0.2,0.2,0.2
									c15.9,18.5,19.4,45.2,37.6,59.7c0.5,0.4,0.9,0.8,1.2,1.4c11.3,7.8,23,15.8,34.2,24.1c-3.7-13.7-0.2-28-9-46.7
									c-3.3-3.4-7.6-5.7-12.6-8.1c-4.5-2.2-8.8-3.9-12.9-6.9c5.1,2.1,10.9,4.4,15.9,6.7c2.8,1.3,5.2,2.6,7.4,4
									c-1.6-2.9-3.5-5.9-5.8-9l-10.2-12.3l0,0c23.8,19.7,28.6,34.9,30.3,48.1c4-15.6,8.1-34.7,4.4-47.5
									c7.8,11.9,0.1,43.4-3.4,58.5c0.8,8.1,2.2,15.7,9,23.3c9.5,7.6,18.7,19.1,26.3,27.1c0-54-3.8-79-32.8-125.1
									c-8.3-9.4-18.6-16.5-29.8-22.6c-2.6-0.2-5.4,0.2-8.3,0.9c-8.7,4.9-12.8,12.3-20.9,19c-2.3,1.9-2.9,2.2-5.6,3.3l0,0
									c2-1.4,3.2-2.3,5-3.9c6.4-6.1,10.1-12,15.9-16.8c-5.3,0.1-10.4,1-24-5.2l0,0c21.5,5.7,24.4,3.1,32.4-0.2
									c-11.2-5.8-23.2-10.9-34.7-16.7c-6.5-1.5-15.2-1.5-20.3-0.3c-3.3,0.7-0.3,0.2-4,0.8c6-2.7,9.5-3.1,16.1-3.1
									c1.1,0,2.2,0,3.2,0.1c-4.4-2.3-8.7-4.8-12.8-7.5c2.7,1.1,5.5,2.1,8.2,3.2c-5.3-4.6-7.4-7.8-8.8-17.2l0,0
									c-0.2-1.4-0.2-0.7-0.2-2.1c0.4,0.8,0.6,1,0.8,1.9c3.5,11.7,4.3,12.1,14.1,19.3c2.2,1.7,11.3,4.6,14.5,5.8
									c-5.7-6.4-4.8-12.5-10.5-24.6c5.5,6.1,5.7,11.1,8.1,16.2c-0.2-1.3-0.3-2.4-0.2-3.4c0.3-3.3,1.5-6.6,3.2-9.4
									c-0.6,3.7-2,7.3-1.7,11c0.1,1.8,1.2,4.9,2.7,7.4c2.3,2.4,5.6,4.9,10.7,7.6c18.8,7.7,36.8,16.9,50.4,30.6l0.5-0.3
									c-5.9-18.5-9.7-33.9-7.4-50.5c-0.9-8.4-5.7-17.1-11.5-25c-5.4-5-13.5-8.4-19.7-10.4c-3.2-1-5.8-1.5-9-2.2l0,0
									c7.5-0.4,16.4,2.9,23,6.4c0.6,0.3,1.2,0.6,1.7,0.9c-4.5-5.5-9.1-10.5-12.8-14.5c10.7,7.3,24.5,21.8,29.8,36.8
									c2.3-9.2,6.5-18.9,13.2-30c-1.7,4.3-3.1,8.3-4.3,12.1c4.8-5,11-9.4,16.9-11.7c-1.8,1.5-0.8,0.8-2.8,2.1
									c-6.4,4.5-11.4,8.5-15.7,14.7c-6.1,21-5.5,35-0.8,51.7c1.9-4,5-7,8.4-10.6c0-0.1,0.1-0.3,0.2-0.4c1-1,1.7-1.9,2.4-2.5
									c4.5-5.4,8.7-12.7,9.7-25.8l0,0c0.9,9.5-0.6,16-3.2,21c0.9-0.5,2.1-1.1,3.6-1.9c3.5-1.9,5.8-3.7,9.1-5.9l0,0
									c-3,3.5-4.5,4.8-8.4,7.2c-3.7,2.3-5.1,3-6.2,3.7c-5.4,8-13,12-13.7,21.6c2.1,6.3,4.6,13.1,7.5,20.9
									c4.8,9.1,11.8,20.5,19.7,40.1c2.9-9.6,27.5-38.8,34.1-49.6c5.7-10.2,3.6-20.2-0.7-29.7c-3.1-1.9-7.9-3.3-9.8-4
									c-5.1-1.9-12.5-4.7-16-9.3c-0.9-1.2-1.3-2.3-1.9-3.8l0,0l1.5,2.1c4.7,5.8,12.9,8,19.7,10.2c1.5,0.5,3.3,1,5.1,1.6
									c-3.1-6.1-6.9-12-9.9-17.7c8.9,9.7,17.8,20.5,19.1,32.5c2-6.6,3.3-13.8,3.7-21.7c4.4,22.9-5.5,41.6-16.4,58
									c6.7-2.6,14.3-2.5,24.9-8.3c-7.1,7.1-13.1,8-18.7,9.4c4.7,1.4,9.1,3.9,15.8,3.9c0.7,0,4.7-0.2,5.3-0.2
									c-12.4,3.8-17.8-1.9-25.2-2.4c-2.2,0.9-4.4,2.1-6.5,4.2c-11.6,16.9-20,29.4-15.8,46c4.2,16.5,12.1,64.4,11.9,78.6
									c2.7-32.6,28.8-77.7,54.6-97.5c5.2-6,8.2-12.6,10.1-19.6c-0.9-8.7-9-18.6-13.1-24.4c5.1,4.6,11.3,10.6,14.6,17.4
									c1.4-8.8,1.6-18.3,2.1-28.3c1.1,6.2,2,12,2.4,17.6c3.2-8.2,7.2-15.1,12.6-23.4c1.4-2.1,1-1.6,2.7-3.5
									c-6.5,12.5-11.3,19.7-15,32.3c0.4,12-1.6,22.6-8.3,32.8c10.9-4.4,24.7-6.3,34.3-13.3c5.1-4.2,7.1-9.3,7.4-14.7
									c-1.1-6.8-11.3-12.7-15.8-16.6l0,0c4.3,1.5,10,5.7,13.2,8.8c0.9,0.9,1.6,1.7,2.3,2.5c-1-8.1-4.6-16.7-6.9-24.8
									c6.3,13.4,13.7,27.5,7.7,39.8c1.2-0.8,2.3-1.7,3.6-2.6l15.5-13c-3,3.5-5.8,6.6-8.4,9.4c1.3-0.6,2.9-1.1,5-1.7
									c4.5-1.3,87.8,169,92.4,167.7c3.3-0.9,0.8-0.3,4.2-1.1c-5.8,3-87.9-167.4-93.9-165.6c-6.9,2-8.5,3.2-13.9,7
									c-8,7.5-14.5,11.9-20.3,14.8c2,0.4,4.2,0.8,6.9,1.5c15,3.7,13.4,5.5,27.5,0.6l0,0c-7,4.5-10,5.4-16.9,4.4
									c4.1,2.8,7,6.4,11.8,11.4l0,0c0.6,0.6,0.3,0.3,0.8,0.9c-0.4-0.2-0.7-0.3-1.1-0.6c-7.5-6.1-10-9.9-17.8-12.9
									c-9.2-1.7-14.3-2.4-17.5-2.6c-11.9,4.6-22,5.4-38.6,20.8c9.6-6.1,19.9-7.1,39.6-7.7L872,373l0,0l-13.1,1.1
									c-4.9,0.6-9.1,1-12.8,1.5c5.1,1,9.5,2.9,15.2,7c1.7,1.2,2.6,1.9,4.1,3.4c-2.2-1.1-1-0.5-3.1-1.7
									c-10.2-6.1-15.5-5.7-26.1-5.9c-57.1,10-59.6,222.1-38.1,238.6c18.4,14.1,21.5,26.7,21.5,26.7s-31.8-10.7-50.7-9.3
									c-15.6,1.1-24.8,8.5-29,7c-9.3-3.3-6.3-6.3-16.7-6.7C713.2,634.2,688.6,643.2,686.9,638.9z"/>
								<path class="st9" d="M652.3,249.9c4,12.5-12.4,27.3-12.4,27.3s-22.2,1.8-28.6-9.1c-10.4-17.9,12.8-25.6,18.1-14.7
									C624.7,242.1,646,230.1,652.3,249.9z"/>
								<path class="st9" d="M688.3,254.2c0.3,10.5-15.5,18.1-15.5,18.1s-17.4-3.4-19.9-13.2c-4.1-16,15.4-16.8,17.1-7.3
									C668.9,242.2,687.8,237.7,688.3,254.2z"/>
								<path class="st9" d="M795.3,261.2c0.3,10.5-15.5,18.1-15.5,18.1s-17.4-3.4-19.9-13.2c-4.1-16,15.4-16.8,17.1-7.3
									C775.9,249.2,794.8,244.7,795.3,261.2z"/>
								<path class="st9" d="M821.3,271.2c0.3,10.5-15.5,18.1-15.5,18.1s-17.4-3.5-19.9-13.2c-4.1-16,15.4-16.8,17.1-7.3
									C801.9,259.2,820.8,254.7,821.3,271.2z"/>
								<path class="st9" d="M820.3,316.2c0.3,10.5-15.5,18.1-15.5,18.1s-17.4-3.5-19.9-13.2c-4.1-16,15.4-16.8,17.1-7.3
									C800.9,304.2,819.8,299.7,820.3,316.2z"/>
								<path class="st9" d="M803.3,361.2c0.3,10.5-15.5,18.1-15.5,18.1s-17.4-3.5-19.9-13.2c-4.1-16,15.4-16.8,17.1-7.3
									C783.9,349.2,802.8,344.7,803.3,361.2z"/>
								<path class="st9" d="M775.3,301.2c0.3,10.5-15.5,18.1-15.5,18.1s-17.4-3.5-19.9-13.2c-4.1-16,15.4-16.8,17.1-7.3
									C755.9,289.2,774.8,284.7,775.3,301.2z"/>
								<path class="st9" d="M734.3,294.2c0.3,10.5-15.5,18.1-15.5,18.1s-17.4-3.5-19.9-13.2c-4.1-16,15.4-16.8,17.1-7.3
									C714.9,282.2,733.8,277.7,734.3,294.2z"/>
								<path class="st9" d="M897.3,309.1c0.3,10.5-15.4,18.2-15.4,18.2s-17.4-3.4-19.9-13.2c-4.1-16,15.4-16.8,17-7.3
									C877.8,297.2,896.7,292.6,897.3,309.1z"/>
								<path class="st9" d="M986.9,530c0.3,10.5-94-152.7-94-152.7s-17.4-3.4-19.9-13.2c-4.1-16,15.4-16.8,17-7.3
									C888.8,347.2,986.3,513.5,986.9,530z"/>
								<path class="st9" d="M739.3,338.1c0.3,10.5-15.4,18.2-15.4,18.2s-17.4-3.4-19.9-13.2c-4.1-16,15.4-16.8,17-7.3
									C719.8,326.2,738.7,321.6,739.3,338.1z"/>
								<path class="st9" d="M861.7,296.5c0.2,7.1-10.5,12.4-10.5,12.4s-11.9-2.3-13.6-9c-2.8-10.9,10.5-11.5,11.6-5
									C848.5,288.4,861.4,285.2,861.7,296.5z"/>
								<path class="st9" d="M873.7,376.5c0.2,7.1-10.5,12.4-10.5,12.4s-11.9-2.3-13.6-9c-2.8-10.9,10.5-11.5,11.6-5
									C860.5,368.4,873.4,365.2,873.7,376.5z"/>
								<path class="st9" d="M990.3,500.4c0.2,7.1-89.1-158.5-89.1-158.5s-11.9-2.3-13.6-9c-2.8-10.9,10.5-11.5,11.6-5
									C898.5,321.4,990,489.1,990.3,500.4z"/>
								<path class="st9" d="M710.3,217.2c0.3,10.5-15.5,18.1-15.5,18.1s-17.4-3.4-19.9-13.2c-4.1-16,15.4-16.8,17.1-7.3
									C690.9,205.2,709.8,200.7,710.3,217.2z"/>
								<path class="st9" d="M755.3,221.2c0.3,10.5-15.5,18.1-15.5,18.1s-17.4-3.4-19.9-13.2c-4.1-16,15.4-16.8,17.1-7.3
									C735.9,209.2,754.8,204.7,755.3,221.2z"/>
								<path class="st9" d="M757.8,260.1c0.2,8.4-12.4,14.5-12.4,14.5s-13.9-2.8-15.9-10.6c-3.2-12.8,12.3-13.4,13.6-5.8
									C742.3,250.5,757.4,246.9,757.8,260.1z"/>
								<path class="st9" d="M680.9,299.4c-0.9,13.1-21.6,20.8-21.6,20.8s-21.4-6.5-23.3-19c-3.1-20.5,21.3-19.1,22.2-7
									C658.1,282,682.3,278.7,680.9,299.4z"/>
								<path class="st9" d="M593.9,309.4c-0.9,13.1-21.6,20.8-21.6,20.8s-21.4-6.5-23.3-19c-3.1-20.5,21.3-19.1,22.2-7
									C571.1,292,595.3,288.7,593.9,309.4z"/>
								<path class="st9" d="M570.9,347.4c-0.9,13.1-21.6,20.8-21.6,20.8s-21.4-6.5-23.3-19c-3.1-20.5,21.3-19.1,22.2-7
									C548.1,330,572.3,326.7,570.9,347.4z"/>
								<path class="st9" d="M624.7,379.2c-0.7,9.5-15.7,15.1-15.7,15.1s-15.5-4.7-16.9-13.8c-2.3-14.9,15.5-13.9,16.1-5.1
									C608.2,366.6,625.8,364.2,624.7,379.2z"/>
								<path class="st9" d="M639,413.8c-0.5,7.3-12.1,11.6-12.1,11.6s-11.9-3.6-13-10.6c-1.7-11.5,11.9-10.7,12.4-3.9
									C626.3,404.1,639.8,402.2,639,413.8z"/>
								<path class="st9" d="M655.6,386.1c-0.4,5.9-9.8,9.4-9.8,9.4s-9.6-2.9-10.5-8.6c-1.4-9.3,9.6-8.6,10-3.2
									C645.3,378.3,656.3,376.7,655.6,386.1z"/>
								<path class="st9" d="M717.9,342.4c-0.9,13.1-21.6,20.8-21.6,20.8s-21.4-6.5-23.3-19c-3.1-20.5,21.3-19.1,22.2-7
									C695.1,325,719.3,321.7,717.9,342.4z"/>
								<path class="st9" d="M624.4,325.6c-0.6,8.1-13.4,12.9-13.4,12.9s-13.2-4-14.4-11.8c-1.9-12.7,13.2-11.8,13.8-4.3
									C610.2,314.8,625.2,312.7,624.4,325.6z"/>
							</g>
							<g>
								<path id="XMLID_10_" class="st8" d="M219.8,633.7c-15.7-3.7-44.8-14.4-57.8-44.5c-13.8-32-20.8-67.4-13.4-105.8
									c6.5-34,53-17.5,90-40c-28.5,4.5-80,17.5-83.5,6c-3.8-15,45.9-46,56.8-54.6c8.7-2.6,18.3-2.6,28.1-2
									c10.3,6.3,27.7,22.8,41,19.7l0,0c-14.8-3.9-25.7-13-34.3-19.3c21.5,1.7,44,4,63-13.1c-15,8-29,9.8-42.2,9.5
									c4.9-2.1,9.4-5.2,13.2-8.7c4.7-4.3,6.2-4.6,11.6-7.6c-5.7,1.2-8.3,2.7-12.7,6.3c-5.8,4.6-13,8.8-20.5,9.6
									c-12.8-1.1-24.8-3.4-36.3-3.1c16.6-13.3,31-21.5,31.3-21.7c18.9-8.5,31.5-9,53-19.4c1.8-0.9,3.5-1.8,5-2.6
									c7.3-2.2,13-1.8,18.4-0.7c5.8,3.3,6.7,14.1,18.2,16.3l2.8,0.3c-0.7-0.3-4.1-1.5-4.9-1.9c-7.1-3.3-8.6-9.5-11.9-13.7
									c9.6,2.5,18.7,5.6,34.2-2.9l0,0c-26.3,8.5-34-2.9-49.6-2.2c9.3-7.7,11-16.8,15-32.8c-4.1,8.3-6.3,14.6-9.2,19.8
									c1-5.4,0.7-9.8-2.1-16.5c0.2,2.8,0,1.3,0.4,3.9c1.3,8.3,0.5,10.7-1.8,17.7c-3.4,4.1-8.2,7.6-16.5,11.1
									c-21.2,9-33.2,9.4-50.4,15.9l0,0c0,0-11.6,3.8-13.2,4.9c4.6-9.5,7.3-25.4,15.8-31.6c3.9-2.8,8.3-4.2,13.3-5
									c4.2,0.9,12.2,5.3,14.5,6.3c3.9,1.7,10.4,4.2,14.7,3l1.9-0.9l0,0l-2,0.4c-5.4,0.6-11.7-2.7-16.3-5.1c-1.9-1-4.9-2.8-7.9-4.2
									c10.9-1.1,16.9,0,31.9-7.3c-23.7,8.6-36.1,0.8-50.2,9.2c7.7-13.2,19.2-20.2,29.1-24.9l7.2-3.5c-6.8,1.2-12.5,3.1-17.5,5.6
									c9-11.7,9.4-18,12.3-41.8l0,0c-5,20.3-5.7,27.1-11.9,35.9c0.9-5.9,0.6-14.5,0-18.1l0,0c-0.5,3-0.5,6.1-0.7,9.1
									c-0.3,4.1-0.3,10.5-3.1,13.7c-1,1.2-1.5,1.8-1.9,2.5c-2.2,2.5-4.8,5.2-7.9,8.5c-0.5,0.5-1,1-1.5,1.5l-0.1,0.2
									c-0.1,0.1-0.1,0.1-0.2,0.2c-16.4,18-20.6,44.7-39.2,58.7c-0.5,0.3-1,0.8-1.3,1.3c-11.5,7.5-23.4,15.2-34.8,23.2
									c4.1-13.6,1-28,10.2-46.4c3.4-3.3,7.7-5.5,12.8-7.8c4.6-2.1,8.9-3.6,13.1-6.5c-5.2,2-11.1,4.1-16.1,6.3
									c-2.8,1.2-5.3,2.4-7.5,3.8c1.7-2.9,3.7-5.8,6-8.9l10.6-12l0,0c-24.3,19-29.5,34.1-31.6,47.3c-3.5-15.7-7.1-34.9-3.1-47.6
									c-8.1,11.7-1.3,43.3,1.8,58.6c-1,8.1-2.6,15.6-9.6,23c-9.7,7.3-35.4,22-38.7,54c-0.7-52,17.7-106.5,47.8-151.8
									c8.6-9.2,19.1-15.9,30.4-21.8c2.6-0.1,5.4,0.4,8.3,1.1c8.6,5.1,12.4,12.6,20.4,19.5c2.3,2,2.8,2.3,5.5,3.4l0,0
									c-1.9-1.4-3.2-2.3-4.9-4.1c-6.2-6.2-9.8-12.3-15.4-17.3c5.3,0.2,10.3,1.2,24.1-4.5l0,0c-21.6,5.1-24.5,2.4-32.4-1
									c11.4-5.5,23.4-10.3,35.1-15.8c6.6-1.3,15.2-1.1,20.3,0.2c3.3,0.8,0.3,0.2,4,0.9c-5.9-2.9-9.4-3.4-16-3.5
									c-1.1,0-2.2,0-3.2,0c4.4-2.2,8.8-4.6,13-7.1c-2.7,1-5.5,2-8.3,3c5.4-4.4,7.6-7.6,9.2-17l0,0c0.3-1.3,0.2-0.7,0.3-2
									c-0.4,0.8-0.6,1-0.9,1.9c-3.8,11.6-4.7,12-14.6,18.9c-2.2,1.6-11.5,4.3-14.7,5.4c5.9-6.2,5.1-12.4,11.2-24.3
									c-5.7,6-6,11-8.5,16c0.2-1.2,0.3-2.4,0.2-3.4c-0.2-3.3-1.4-6.6-2.9-9.5c0.5,3.7,1.8,7.3,1.4,11.1c-0.2,1.7-1.4,4.8-2.9,7.4
									c-2.4,2.3-5.8,4.7-10.9,7.3c-19,7.2-37.2,15.9-51.2,29.3l-0.4-0.3c6.4-18.4,10.6-33.6,8.7-50.3c1.1-8.4,6.1-16.9,12.1-24.6
									c5.6-4.9,13.7-8.1,20-9.9c3.2-0.9,5.8-1.4,9.1-1.9l0,0c-7.5-0.6-16.5,2.5-23.1,5.8c-0.6,0.3-1.2,0.6-1.7,0.9
									c4.6-5.4,9.4-10.2,13.1-14.1c-10.9,7-25.1,21.2-30.8,36c-2.1-9.2-6-19.1-12.4-30.3c1.5,4.4,2.9,8.4,4,12.3
									c-4.7-5.1-10.7-9.7-16.6-12.2c1.8,1.6,0.8,0.8,2.7,2.2c6.2,4.7,11.2,8.8,15.3,15.1c5.5,21.2,4.5,35.2-0.6,51.7
									c-1.8-4.1-4.9-7.2-8.1-10.8c0-0.1-0.1-0.3-0.2-0.4c-0.9-1.1-1.7-1.9-2.3-2.6c-4.4-5.5-8.4-12.9-9-26.1l0,0
									c-1.2,9.5,0.2,16,2.6,21.1c-0.9-0.5-2.1-1.1-3.5-2c-3.5-2-5.7-3.9-8.9-6.2l0,0c2.9,3.6,4.3,4.9,8.2,7.4
									c3.6,2.4,5,3.1,6.1,3.9c5.2,8.1,12.7,12.3,13.1,22c-2.2,6.2-4.9,13-8.1,20.7c-5.1,9-12.4,20.2-20.8,39.5
									c-2.7-9.6-26.4-39.5-32.8-50.5c-5.4-10.4-9.2-12.1-4.6-21.5c3.1-1.8,11-6.4,13-7.1c5.1-1.7,15.6-9.2,19.3-13.7
									c1-1.2,1.4-2.3,2-3.7l0,0l-1.6,2.1c-4.8,5.6-13.1,7.6-19.9,9.6c-1.5,0.4-16.8,2.7-18.6,3.4c3.3-6,6-29.2,9.1-34.8
									c-9.2,9.5-14.9,34.6-16.5,46.5c-7.7-10.6-19.4-28.4-19.5-36.3c-5,22.7,32,56.6,42.4,73.3c-6.7-2.8-14.2-2.9-24.7-9
									c6.9,7.3,12.9,8.3,18.4,9.9c-4.7,1.3-9.2,3.6-15.9,3.5c-0.7,0-4.7-0.3-5.3-0.3c12.3,4.1,17.9-1.5,25.3-1.8
									c2.2,0.9,4.3,2.2,6.4,4.3c11.2,17.2,19.2,30,14.6,46.4c-2.2,7.9-8.3,22.3-14,36.6c-6.2,15.5-5.3,14.3-7,19.3
									c-6.3-32.3-19.7-56.1-45-76.5c-5-6.1-7.9-12.8-9.6-19.9c1.1-8.7,9.5-18.3,13.8-24.1c-5.3,4.5-11.6,10.3-15.1,17
									c-1.2-8.8-1.1-18.3-1.4-28.4c-1.2,6.2-2.3,12-2.9,17.5c-3-8.3-6.8-15.3-12-23.7c-1.3-2.1-1-1.6-2.6-3.6
									c6.1,12.7,10.8,20,14.1,32.7c-0.7,11.9,1,22.7,7.4,33c-10.7-4.7-24.5-7-33.9-14.2c-5-4.3-6.9-9.4-7-14.9
									c1.2-6.8,11.7-12.4,16.2-16.2l0,0c-4.3,1.3-10.2,5.4-13.5,8.5c-0.9,0.8-1.7,1.6-2.4,2.5c1.2-8,5-16.6,7.6-24.6
									c-6.6,13.2-14.4,27.1-8.8,39.6c-1.1-0.8-2.3-1.7-3.5-2.7L2.8,316.3c2.9,3.6,5.6,6.8,8.2,9.6c-1.3-0.6-2.8-1.2-4.9-1.8
									c-4.5-1.4-9.1-2.1-13.7-3.6c-3.3-1-0.8-0.4-4.1-1.2c5.7,3.2,9.2,3.8,15.1,5.7c6.8,2.2,8.4,3.4,13.7,7.3
									c7.8,7.7,14.1,12.2,19.9,15.3c-2,0.3-4.3,0.7-6.9,1.3c-15.1,3.3-13.5,5.1-27.5-0.2l0,0c6.9,4.7,9.9,5.7,16.8,4.9
									c-4.2,2.7-7.2,6.2-12.1,11.1l0,0c-0.6,0.6-0.3,0.3-0.8,0.9c0.4-0.2,0.7-0.3,1.1-0.5c7.7-5.9,10.3-9.6,18.1-12.4
									c9.3-1.4,14.4-2.1,17.5-2.1c11.8,4.9,21.8,6,38.1,21.9c-9.4-6.4-19.7-7.7-39.4-8.8l-13.2,0.1l0,0l13,1.4
									c4.8,0.7,9.1,1.2,12.8,1.8c-5.1,0.8-9.6,2.6-15.4,6.6c-1.8,1.2-2.6,1.8-4.2,3.3c2.2-1,1-0.4,3.1-1.6
									c10.3-5.8,15.6-5.3,26.3-5.2c56.8,11.5,59.3,233.4,27.3,253L80.4,630L219.8,633.7z"/>
								<path class="st9" d="M252,246.6c-4.3,12.4,11.7,27.6,11.7,27.6s22.2,2.4,28.9-8.3c10.8-17.7-12.2-26-17.8-15.2
									C279.7,239.6,258.8,227,252,246.6z"/>
								<path class="st9" d="M215.8,250c-0.6,10.5,15,18.5,15,18.5s17.5-3,20.2-12.7c4.5-15.9-15-17.2-16.9-7.7
									C235.6,238.6,216.8,233.5,215.8,250z"/>
								<path class="st9" d="M93.2,224.7c-0.6,10.5,15,18.5,15,18.5s17.5-3,20.2-12.7c4.5-15.9-15-17.2-16.9-7.7
									C112.9,213.3,94.1,208.2,93.2,224.7z"/>
								<path class="st9" d="M50.7,239.2c-0.6,10.5,15,18.5,15,18.5s17.5-3,20.2-12.7c4.5-15.9-15-17.2-16.9-7.7
									C70.4,227.7,51.6,222.7,50.7,239.2z"/>
								<path class="st9" d="M82.2,308.4c-0.6,10.5,15,18.5,15,18.5s17.5-3,20.2-12.7c4.5-15.9-15-17.2-16.9-7.7
									C102,297,83.2,292,82.2,308.4z"/>
								<path class="st9" d="M98,353.9c-0.6,10.5,15,18.5,15,18.5s17.5-3,20.2-12.7c4.5-15.9-15-17.2-16.9-7.7
									C117.7,342.5,98.9,337.4,98,353.9z"/>
								<path class="st9" d="M127.6,294.7c-0.6,10.5,15,18.5,15,18.5s17.5-3,20.2-12.7c4.5-15.9-15-17.2-16.9-7.7
									C147.3,283.2,128.5,278.2,127.6,294.7z"/>
								<path class="st9" d="M168.8,288.8c-0.6,10.5,15,18.5,15,18.5s17.5-3,20.2-12.7c4.5-15.9-15-17.2-16.9-7.7
									C188.5,277.3,169.7,272.3,168.8,288.8z"/>
								<path class="st9" d="M5.5,299.3c-0.7,10.5,14.9,18.6,14.9,18.6s17.5-2.9,20.3-12.6c4.6-15.9-14.9-17.2-16.8-7.8
									C25.2,288,6.5,282.8,5.5,299.3z"/>
								<path class="st9" d="M-6.9,349C-7.5,359.5,8,367.6,8,367.6s17.5-2.9,20.3-12.6c4.6-15.9-14.9-17.2-16.8-7.8
									C12.9,337.7-5.9,332.5-6.9,349z"/>
								<path class="st9" d="M162.6,332.5c-0.6,10.5,14.9,18.6,14.9,18.6s17.5-2.9,20.3-12.6c4.6-15.9-14.9-17.2-16.8-7.8
									C182.4,321.2,163.6,316.1,162.6,332.5z"/>
								<path class="st9" d="M41.3,287.6c-0.4,7.1,10.2,12.7,10.2,12.7s11.9-2,13.8-8.6c3.1-10.8-10.2-11.8-11.5-5.3
									C54.8,279.9,42,276.4,41.3,287.6z"/>
								<path class="st9" d="M27.2,367.3c-0.4,7.1,10.2,12.7,10.2,12.7s11.9-2,13.8-8.6c3.1-10.8-10.2-11.8-11.5-5.3
									C40.7,359.5,27.9,356.1,27.2,367.3z"/>
								<path class="st9" d="M-9.5,319.3C-9.9,326.4,0.7,332,0.7,332s11.9-2,13.8-8.6c3.1-10.8-10.2-11.8-11.5-5.3
									C3.9,311.5-8.9,308.1-9.5,319.3z"/>
								<path class="st9" d="M194.8,212.4c-0.6,10.5,15,18.5,15,18.5s17.5-3,20.2-12.7c4.5-15.9-15-17.2-16.9-7.7
									C214.6,201,195.8,195.9,194.8,212.4z"/>
								<path class="st9" d="M149.8,215.2c-0.6,10.5,15,18.5,15,18.5s17.5-3,20.2-12.7c4.5-15.9-15-17.2-16.9-7.7
									C169.5,203.8,150.7,198.7,149.8,215.2z"/>
								<path class="st9" d="M146.2,254c-0.5,8.3,12,14.8,12,14.8s14-2.4,16.2-10.1c3.5-12.7-12-13.8-13.5-6.2
									C162,244.9,147,240.8,146.2,254z"/>
								<path class="st9" d="M222.1,295.4c0.6,13.1,21,21.3,21,21.3s21.5-5.9,23.8-18.4c3.7-20.4-20.8-19.6-22-7.6
									C245.3,278.6,221.2,274.6,222.1,295.4z"/>
								<path class="st9" d="M308.8,307.7c0.6,13.1,21,21.3,21,21.3s21.5-5.9,23.8-18.4c3.7-20.4-20.8-19.6-22-7.6
									C332,291,307.9,286.9,308.8,307.7z"/>
								<path class="st9" d="M283.7,377.8c0.6,13.1,21,21.3,21,21.3s21.5-5.9,23.8-18.4c3.7-20.4-20.8-19.6-22-7.6
									C307,361.1,282.9,357.1,283.7,377.8z"/>
								<path class="st9" d="M214,444.2c0.4,9.5,15.3,15.5,15.3,15.5s15.6-4.3,17.2-13.3c2.7-14.8-15.1-14.3-16-5.5
									C230.9,432.1,213.4,429.1,214,444.2z"/>
								<path class="st9" d="M260.8,410.8c0.3,7.3,11.7,11.9,11.7,11.9s12-3.3,13.3-10.3c2-11.4-11.6-11-12.3-4.2
									C273.8,401.5,260.4,399.3,260.8,410.8z"/>
								<path class="st9" d="M229,347.6c0.2,5.9,9.5,9.6,9.5,9.6s9.7-2.7,10.7-8.3c1.7-9.2-9.4-8.9-10-3.4
									C239.5,340,228.6,338.2,229,347.6z"/>
								<path class="st9" d="M183.9,337.4c0.6,13.1,21,21.3,21,21.3s21.5-5.9,23.8-18.4c3.7-20.4-20.8-19.6-22-7.6
									C207.2,320.6,183.1,316.6,183.9,337.4z"/>
								<path class="st9" d="M277.8,323.1c0.3,8.1,13,13.2,13,13.2s13.3-3.7,14.7-11.4c2.3-12.7-12.9-12.2-13.6-4.7
									C292.2,312.7,277.3,310.2,277.8,323.1z"/>
							</g>
							<path class="st10" d="M780.4,694.6l0.9,8.9l-741.9-1.6l-2-80c70.9-39.3,210.4-43.4,374.8-30.9
								C576.5,603.6,716.2,645,780.4,694.6z"/>
							<g>
								<g>
									<g>
										<g>
											<g>
												<g>
													<path class="st9" d="M813.3,679.7c0,0,11.8-26.4,1.4-55.5c0,0,5.1,35.2-8.3,55.5H813.3z"/>
													<path class="st9" d="M767.2,679.7c0,0,6.2-28.9-4.1-58c0,0,10.6,37.7-2.7,58H767.2z"/>
													<path class="st9" d="M732.3,679.7c0,0,0.1-18.8-9.7-48.5c0,0,6.1,30.1,2.8,48.5H732.3z"/>
													<path class="st9" d="M723.3,679.7c0,0-1.5-22.2-20.6-34.3c0,0,18,17.4,13.8,34.3H723.3z"/>
													<path class="st9" d="M717.4,679.7c0,0-6.1-13.8-17.5-18.4c0,0,12.3,11.2,12.3,18.4H717.4z"/>
													<path class="st9" d="M711.3,679.7c0,0-6.7-12.8-20.4-13.3c0,0,14.4,7.2,13.7,13.3H711.3z"/>
													<path class="st9" d="M701.3,679.7c0,0-9.2-11.4-21.9-8.5c0,0,12.5,1.7,13.9,8.5H701.3z"/>
													<path class="st9" d="M745.7,630c0,0-0.1,37.3-7.3,49.8h-9.2c0,0,5.7-23.4,0.9-36.1c0,0,6.7,20.4,4.3,33.8
														C734.4,677.5,744.7,652.6,745.7,630z"/>
													<path class="st9" d="M758,679.7c0,0-1.9-29.1-24.5-40.7c0,0,16.8,12.5,20,40.7H758z"/>
													<path class="st9" d="M779.9,679.7c0,0-12-32.3-40.7-41.1c0,0,27.7,16.3,34.9,41.1H779.9z"/>
												</g>
											</g>
											<g>
												<g>
													<path class="st9" d="M799,680.7c0,0,6.2-28.9-4.1-58c0,0,10.6,37.7-2.7,58H799z"/>
													<path class="st9" d="M764,680.7c0,0,0.1-18.8-9.7-48.5c0,0,6.1,30.1,2.8,48.5H764z"/>
													<path class="st9" d="M755.1,680.7c0,0-1.5-22.2-20.6-34.3c0,0,18,17.4,13.8,34.3H755.1z"/>
													<path class="st9" d="M749.1,680.7c0,0-6.1-13.8-17.5-18.4c0,0,12.3,11.2,12.3,18.4H749.1z"/>
													<path class="st9" d="M743.1,680.7c0,0-6.7-12.8-20.4-13.3c0,0,14.4,7.2,13.7,13.3H743.1z"/>
													<path class="st9" d="M733,680.7c0,0-9.2-11.4-21.9-8.5c0,0,12.5,1.7,13.9,8.5H733z"/>
													<path class="st9" d="M777.5,630.9c0,0-0.1,37.3-7.3,49.8H761c0,0,5.7-23.4,0.9-36.1c0,0,6.7,20.4,4.3,33.8
														C766.2,678.4,776.5,653.5,777.5,630.9z"/>
													<path class="st9" d="M789.8,680.7c0,0-1.9-29.1-24.5-40.7c0,0,16.8,12.5,20,40.7H789.8z"/>
													<path class="st9" d="M811.7,680.7c0,0-12-32.3-40.7-41.1c0,0,27.7,16.3,34.9,41.1H811.7z"/>
												</g>
											</g>
											<g>
												<g>
													<path class="st9" d="M775.3,667.2L775.3,667.2c0.2,0,0.3-0.1,0.3-0.3c0-0.6-1.4-65-22.5-79.2c-0.1-0.1-0.3-0.1-0.4,0.1
														c-0.1,0.1-0.1,0.3,0.1,0.4c20.8,14,22.3,78.1,22.3,78.7C775,667.1,775.1,667.2,775.3,667.2z"/>
													<path class="st9" d="M789.3,655c0.2,0,0.3-0.1,0.3-0.3c0-0.3,0.8-26.6,13.4-47.4c0.1-0.1,0-0.3-0.1-0.4
														c-0.1-0.1-0.3,0-0.4,0.1c-12.7,20.9-13.5,47.5-13.5,47.7C788.9,654.8,789.1,654.9,789.3,655
														C789.2,655,789.3,655,789.3,655z"/>
													<path class="st9" d="M804.9,659.5c0.1,0,0.3-0.1,0.3-0.3c0.1-0.5,10.1-52.8,29.3-68.5c0.1-0.1,0.2-0.3,0-0.4
														c-0.1-0.1-0.3-0.2-0.4,0c-19.3,15.8-29.4,68.3-29.5,68.9C804.5,659.3,804.6,659.5,804.9,659.5
														C804.8,659.5,804.9,659.5,804.9,659.5z"/>
													
														<ellipse transform="matrix(0.6876 -0.7261 0.7261 0.6876 -189.6703 725.3596)" class="st9" cx="748.1" cy="583.1" rx="3.6" ry="9.7"/>
													
														<ellipse transform="matrix(0.7809 0.6246 -0.6246 0.7809 549.5186 -395.2686)" class="st9" cx="838.3" cy="585.8" rx="2.9" ry="7.8"/>
													
														<ellipse transform="matrix(0.7809 0.6247 -0.6247 0.7809 552.6841 -372.1454)" class="st9" cx="806.8" cy="601.7" rx="2.9" ry="7.8"/>
													<path class="st9" d="M801.4,663.4L801.4,663.4c0.2,0,0.3-0.2,0.3-0.4c-0.1-0.4-9-40.9-26.2-52.7
														c-0.1-0.1-0.3-0.1-0.4,0.1c-0.1,0.1-0.1,0.3,0.1,0.4c17,11.6,25.9,51.9,25.9,52.3C801.1,663.3,801.2,663.4,801.4,663.4
														z"/>
													
														<ellipse transform="matrix(0.6875 -0.7262 0.7262 0.6875 -199.0319 748.6201)" class="st9" cx="770.3" cy="605.6" rx="3.6" ry="9.7"/>
													<g>
														<g>
															<path class="st9" d="M826.4,680.5c0,0,10.1-35.6,1.6-64.6c0,0,3.6,44.4-7.2,64.6H826.4z"/>
															<path class="st9" d="M789.1,680.5c0,0,9.5-26.4,1.1-55.5c0,0,4.1,35.2-6.7,55.5H789.1z"/>
															<path class="st9" d="M760.7,680.5c0,0,0.1-14.8-15.5-42.2c0,0,12.7,23.8,10,42.2H760.7z"/>
															<path class="st9" d="M753.5,680.5c0,0-1.2-22.2-16.7-34.3c0,0,14.6,17.4,11.2,34.3H753.5z"/>
															<path class="st9" d="M748.7,680.5c0,0-4.9-13.8-14.2-18.4c0,0,10,11.2,10,18.4H748.7z"/>
															<path class="st9" d="M743.7,680.5c0,0-7.3-14.4-21.3-18.8c0,0,16.5,12.7,15.9,18.8H743.7z"/>
															<path class="st9" d="M735.6,680.5c0,0-7.4-11.4-17.7-8.5c0,0,10.1,1.7,11.2,8.5H735.6z"/>
															<path class="st9" d="M772.2,630.8c0,0-0.7,37.2-6.5,49.7h-7.5c0,0,4.6-23.4,0.7-36.1c0,0,5.4,20.4,3.5,33.8
																C762.5,678.2,771.4,653.4,772.2,630.8z"/>
															<path class="st9" d="M781.6,680.5c0,0-1.5-29.1-19.9-40.7c0,0,13.6,12.5,16.2,40.7H781.6z"/>
															<path class="st9" d="M799.4,680.5c0,0-9.7-32.3-33-41.1c0,0,22.4,16.3,28.3,41.1H799.4z"/>
														</g>
														<g>
															<path class="st9" d="M810.8,680.5c0,0,5-28.9-3.4-58c0,0,8.6,37.7-2.2,58H810.8z"/>
															<path class="st9" d="M782.5,680.5c0,0,0.1-18.8-7.8-48.5c0,0,5,30.1,2.3,48.5H782.5z"/>
															<path class="st9" d="M775.2,680.5c0,0-1.2-22.2-16.7-34.3c0,0,14.6,17.4,11.2,34.3H775.2z"/>
															<path class="st9" d="M770.4,680.5c0,0-4.9-13.8-14.2-18.4c0,0,10,11.2,10,18.4H770.4z"/>
															<path class="st9" d="M765.5,680.5c0,0-5.5-12.8-16.5-13.3c0,0,11.7,7.2,11.1,13.3H765.5z"/>
															<path class="st9" d="M757.3,680.5c0,0-7.5-11.4-17.8-8.5c0,0,10.1,1.7,11.3,8.5H757.3z"/>
															<path class="st9" d="M793.4,630.7c0,0-0.1,37.3-5.9,49.8H780c0,0,4.6-23.4,0.7-36.1c0,0,5.4,20.4,3.5,33.8
																C784.2,678.2,792.6,653.3,793.4,630.7z"/>
															<path class="st9" d="M803.4,680.5c0,0-1.5-29.1-19.9-40.7c0,0,13.6,12.5,16.2,40.7H803.4z"/>
															<path class="st9" d="M821.1,680.5c0,0-9.7-32.3-33-41.1c0,0,22.4,16.3,28.3,41.1H821.1z"/>
														</g>
													</g>
												</g>
											</g>
											<g>
												<g>
													<path class="st9" d="M710.7,669.7L710.7,669.7c0.2,0,0.3-0.1,0.3-0.3c0-0.6-1.4-65-22.5-79.2c-0.1-0.1-0.3-0.1-0.4,0.1
														c-0.1,0.1-0.1,0.3,0.1,0.4c20.8,14,22.3,78.1,22.3,78.7C710.3,669.6,710.5,669.7,710.7,669.7z"/>
													<path class="st9" d="M724.6,657.5c0.2,0,0.3-0.1,0.3-0.3c0-0.3,0.8-26.6,13.4-47.4c0.1-0.1,0-0.3-0.1-0.4
														c-0.1-0.1-0.3,0-0.4,0.1c-12.7,20.9-13.5,47.5-13.5,47.7C724.3,657.3,724.4,657.5,724.6,657.5L724.6,657.5z"/>
													<path class="st9" d="M740.2,662c0.1,0,0.3-0.1,0.3-0.3c0.1-0.5,10.1-52.8,29.3-68.5c0.1-0.1,0.2-0.3,0-0.4
														c-0.1-0.1-0.3-0.2-0.4,0c-19.3,15.8-29.4,68.3-29.5,68.9C739.9,661.8,740,662,740.2,662L740.2,662z"/>
													
														<ellipse transform="matrix(0.6876 -0.7261 0.7261 0.6876 -211.6644 679.2178)" class="st9" cx="683.5" cy="585.6" rx="3.6" ry="9.7"/>
													<path class="st9" d="M771.3,586.4c-2.7,3.4-3.8,6.9-2.6,7.9c1.3,1,4.5-0.9,7.1-4.3c2.7-3.4,3.8-6.9,2.6-7.9
														S774,583,771.3,586.4z"/>
													
														<ellipse transform="matrix(0.7809 0.6247 -0.6247 0.7809 540.0585 -331.2044)" class="st9" cx="742.1" cy="604.2" rx="2.9" ry="7.8"/>
													<path class="st9" d="M736.7,665.9C736.7,665.9,736.8,665.9,736.7,665.9c0.2,0,0.3-0.2,0.3-0.4
														c-0.1-0.4-9-40.9-26.2-52.7c-0.1-0.1-0.3-0.1-0.4,0.1c-0.1,0.1-0.1,0.3,0.1,0.4c17,11.6,25.9,51.9,25.9,52.3
														C736.5,665.8,736.6,665.9,736.7,665.9z"/>
													
														<ellipse transform="matrix(0.6875 -0.7262 0.7262 0.6875 -221.0076 702.5051)" class="st9" cx="705.7" cy="608" rx="3.6" ry="9.7"/>
												</g>
											</g>
											<g>
												<g>
													<path class="st9" d="M619,676.5L619,676.5c0.2,0,0.3-0.1,0.3-0.3c0-0.6-1.4-65-22.5-79.2c-0.1-0.1-0.3-0.1-0.4,0.1
														c-0.1,0.1-0.1,0.3,0.1,0.4c20.8,14,22.3,78.1,22.3,78.7C618.7,676.4,618.9,676.5,619,676.5z"/>
													<path class="st9" d="M633,664.2c0.2,0,0.3-0.1,0.3-0.3c0-0.3,0.8-26.6,13.4-47.4c0.1-0.1,0-0.3-0.1-0.4
														c-0.1-0.1-0.3,0-0.4,0.1c-12.7,20.9-13.5,47.5-13.5,47.7S632.8,664.2,633,664.2L633,664.2z"/>
													<path class="st9" d="M648.6,668.8c0.1,0,0.3-0.1,0.3-0.3c0.1-0.5,10.1-52.8,29.3-68.5c0.1-0.1,0.1-0.3,0-0.4
														c-0.1-0.1-0.3-0.2-0.4,0c-19.3,15.8-29.4,68.3-29.5,68.9C648.3,668.6,648.4,668.8,648.6,668.8L648.6,668.8z"/>
													
														<ellipse transform="matrix(0.6875 -0.7261 0.7261 0.6875 -245.1724 614.8555)" class="st9" cx="591.9" cy="592.3" rx="3.6" ry="9.7"/>
													<path class="st9" d="M679.7,593.2c-2.7,3.4-3.8,6.9-2.6,7.9c1.3,1,4.5-0.9,7.1-4.3c2.7-3.4,3.8-6.9,2.6-7.9
														C685.5,587.9,682.4,589.8,679.7,593.2z"/>
													
														<ellipse transform="matrix(0.7808 0.6248 -0.6248 0.7808 524.3352 -272.5023)" class="st9" cx="650.5" cy="611" rx="2.9" ry="7.8"/>
													<path class="st9" d="M645.1,672.7C645.1,672.7,645.2,672.7,645.1,672.7c0.2,0,0.3-0.2,0.3-0.4
														c-0.1-0.4-9-40.9-26.2-52.7c-0.1-0.1-0.3-0.1-0.4,0.1c-0.1,0.1-0.1,0.3,0.1,0.4c17,11.6,25.9,51.9,25.9,52.3
														C644.8,672.6,645,672.7,645.1,672.7z"/>
													
														<ellipse transform="matrix(0.6875 -0.7262 0.7262 0.6875 -254.6345 638.0373)" class="st9" cx="614" cy="614.9" rx="3.6" ry="9.7"/>
												</g>
											</g>
											<g>
												<g>
													<path class="st9" d="M739.6,679.4c0,0,15.8-34.4,1.9-72.2c0,0,6.8,45.8-11.1,72.2H739.6z"/>
													<path class="st9" d="M775.3,679.4c0,0,15.7-34.2,1.9-72c0,0,6.8,45.8-11,72H775.3z"/>
													<path class="st9" d="M685.1,679.4c0,0-1.4-28.9-19.4-44.6c0,0,14.6,29.8,13,44.6H685.1z"/>
													<path class="st9" d="M673.3,679.4c0,0-8.1-17.9-23.3-23.9c0,0,16.4,14.6,16.4,23.9H673.3z"/>
													<path class="st9" d="M665.2,679.4c0,0-9-16.6-27.1-17.3c0,0,19.1,9.4,18.3,17.3H665.2z"/>
													<path class="st9" d="M651.9,679.4c0,0-14.3-16.2-38.7-14.1c0,0,23.9,1.9,27.9,14.1H651.9z"/>
													<path class="st9" d="M711,614.7c0,0-0.1,48.5-9.7,64.7h-12.2c0,0,7.6-30.4,1.2-46.9c0,0,9.3,18.7,6.2,36.1
														C696.4,668.7,709.7,644.1,711,614.7z"/>
													<path class="st9" d="M727.5,679.4c0,0-2.5-37.9-32.6-52.9c0,0,22.4,16.2,26.6,52.9H727.5z"/>
													<path class="st9" d="M756.6,679.4c0,0-15.9-42-54.2-53.4c0,0,36.8,21.1,46.5,53.4H756.6z"/>
													<path class="st9" d="M693.1,679.4c0,0-1.8-36.5-27.4-72.2c0,0,22.8,48.2,18.3,72.2H693.1z"/>
												</g>
											</g>
											<g>
												<g>
													<path class="st9" d="M651.2,679.4c0,0,12.4-35.6,2-64.6c0,0,4.5,44.4-8.9,64.6H651.2z"/>
													<path class="st9" d="M605.1,679.4c0,0,11.8-26.4,1.4-55.5c0,0,5.1,35.2-8.3,55.5H605.1z"/>
													<path class="st9" d="M570.2,679.4c0,0,0.1-14.8-19.2-42.2c0,0,15.6,23.8,12.3,42.2H570.2z"/>
													<path class="st9" d="M561.2,679.4c0,0-1.5-22.2-20.6-34.3c0,0,18,17.4,13.8,34.3H561.2z"/>
													<path class="st9" d="M555.3,679.4c0,0-6.1-13.8-17.5-18.4c0,0,12.3,11.2,12.3,18.4H555.3z"/>
													<path class="st9" d="M584.3,629.8c0,0-0.8,37.2-8,49.7h-9.2c0,0,5.7-23.4,0.9-36.1c0,0,6.7,20.4,4.3,33.8
														C572.3,677.2,583.3,652.3,584.3,629.8z"/>
													<path class="st9" d="M595.9,679.4c0,0-1.9-29.1-24.5-40.7c0,0,16.8,12.5,20,40.7H595.9z"/>
													<path class="st9" d="M617.8,679.4c0,0-12-32.3-40.7-41.1c0,0,27.7,16.3,34.9,41.1H617.8z"/>
												</g>
											</g>
											<g>
												<g>
													<path class="st9" d="M678,679.4c0,0,11.8-26.4,1.4-55.5c0,0,5.1,35.2-8.3,55.5H678z"/>
													<path class="st9" d="M631.9,679.4c0,0,6.2-28.9-4.1-58c0,0,10.6,37.7-2.7,58H631.9z"/>
													<path class="st9" d="M597,679.4c0,0,0.1-18.8-9.7-48.5c0,0,6.1,30.1,2.8,48.5H597z"/>
													<path class="st9" d="M582.1,679.4c0,0-6.1-13.8-17.5-18.4c0,0,12.3,11.2,12.3,18.4H582.1z"/>
													<path class="st9" d="M576,679.4c0,0-6.7-12.8-20.4-13.3c0,0,14.4,7.2,13.7,13.3H576z"/>
													<path class="st9" d="M566,679.4c0,0-9.2-11.4-21.9-8.5c0,0,12.5,1.7,13.9,8.5H566z"/>
													<path class="st9" d="M610.4,629.7c0,0-0.1,37.3-7.3,49.8h-9.2c0,0,5.7-23.4,0.9-36.1c0,0,6.7,20.4,4.3,33.8
														C599.1,677.2,609.4,652.2,610.4,629.7z"/>
													<path class="st9" d="M622.7,679.4c0,0-1.9-29.1-24.5-40.7c0,0,16.8,12.5,20,40.7H622.7z"/>
													<path class="st9" d="M644.6,679.4c0,0-12-32.3-40.7-41.1c0,0,27.7,16.3,34.9,41.1H644.6z"/>
												</g>
											</g>
										</g>
									</g>
									<g>
										<g>
											<g>
												<g>
													<path class="st9" d="M87.5,679.7c0,0-11.8-26.4-1.4-55.5c0,0-5.1,35.2,8.3,55.5H87.5z"/>
													<path class="st9" d="M133.6,679.7c0,0-6.2-28.9,4.1-58c0,0-10.6,37.7,2.7,58H133.6z"/>
													<path class="st9" d="M168.5,679.7c0,0-0.1-18.8,9.7-48.5c0,0-6.1,30.1-2.8,48.5H168.5z"/>
													<path class="st9" d="M177.5,679.7c0,0,1.5-22.2,20.6-34.3c0,0-18,17.4-13.8,34.3H177.5z"/>
													<path class="st9" d="M183.4,679.7c0,0,6.1-13.8,17.5-18.4c0,0-12.3,11.2-12.3,18.4H183.4z"/>
													<path class="st9" d="M189.5,679.7c0,0,6.7-12.8,20.4-13.3c0,0-14.4,7.2-13.7,13.3H189.5z"/>
													<path class="st9" d="M199.5,679.7c0,0,9.2-11.4,21.9-8.5c0,0-12.5,1.7-13.9,8.5H199.5z"/>
													<path class="st9" d="M155.1,630c0,0,0.1,37.3,7.3,49.8h9.2c0,0-5.7-23.4-0.9-36.1c0,0-6.7,20.4-4.3,33.8
														C166.4,677.5,156.1,652.6,155.1,630z"/>
													<path class="st9" d="M142.8,679.7c0,0,1.9-29.1,24.5-40.7c0,0-16.8,12.5-20,40.7H142.8z"/>
													<path class="st9" d="M120.9,679.7c0,0,12-32.3,40.7-41.1c0,0-27.7,16.3-34.9,41.1H120.9z"/>
												</g>
											</g>
											<g>
												<g>
													<path class="st9" d="M101.8,680.7c0,0-6.2-28.9,4.1-58c0,0-10.6,37.7,2.7,58H101.8z"/>
													<path class="st9" d="M136.8,680.7c0,0-0.1-18.8,9.7-48.5c0,0-6.1,30.1-2.8,48.5H136.8z"/>
													<path class="st9" d="M145.7,680.7c0,0,1.5-22.2,20.6-34.3c0,0-18,17.4-13.8,34.3H145.7z"/>
													<path class="st9" d="M151.7,680.7c0,0,6.1-13.8,17.5-18.4c0,0-12.3,11.2-12.3,18.4H151.7z"/>
													<path class="st9" d="M157.7,680.7c0,0,6.7-12.8,20.4-13.3c0,0-14.4,7.2-13.7,13.3H157.7z"/>
													<path class="st9" d="M167.8,680.7c0,0,9.2-11.4,21.9-8.5c0,0-12.5,1.7-13.9,8.5H167.8z"/>
													<path class="st9" d="M123.3,630.9c0,0,0.1,37.3,7.3,49.8h9.2c0,0-5.7-23.4-0.9-36.1c0,0-6.7,20.4-4.3,33.8
														C134.6,678.4,124.3,653.5,123.3,630.9z"/>
													<path class="st9" d="M111,680.7c0,0,1.9-29.1,24.5-40.7c0,0-16.8,12.5-20,40.7H111z"/>
													<path class="st9" d="M89.1,680.7c0,0,12-32.3,40.7-41.1c0,0-27.7,16.3-34.9,41.1H89.1z"/>
												</g>
											</g>
											<g>
												<g>
													<path class="st9" d="M125.5,667.2L125.5,667.2c-0.2,0-0.3-0.1-0.3-0.3c0-0.6,1.4-65,22.5-79.2c0.1-0.1,0.3-0.1,0.4,0.1
														c0.1,0.1,0.1,0.3-0.1,0.4c-20.8,14-22.3,78.1-22.3,78.7C125.8,667.1,125.7,667.2,125.5,667.2z"/>
													<path class="st9" d="M111.5,655c-0.2,0-0.3-0.1-0.3-0.3c0-0.3-0.8-26.6-13.4-47.4c-0.1-0.1,0-0.3,0.1-0.4
														c0.1-0.1,0.3,0,0.4,0.1c12.7,20.9,13.5,47.5,13.5,47.7C111.9,654.8,111.7,654.9,111.5,655
														C111.6,655,111.5,655,111.5,655z"/>
													<path class="st9" d="M95.9,659.5c-0.1,0-0.3-0.1-0.3-0.3c-0.1-0.5-10.1-52.8-29.3-68.5c-0.1-0.1-0.2-0.3,0-0.4
														c0.1-0.1,0.3-0.2,0.4,0c19.3,15.8,29.4,68.3,29.5,68.9C96.3,659.3,96.2,659.5,95.9,659.5
														C96,659.5,95.9,659.5,95.9,659.5z"/>
													
														<ellipse transform="matrix(-0.6876 -0.7261 0.7261 -0.6876 -165.7798 1094.829)" class="st9" cx="152.6" cy="583.1" rx="3.6" ry="9.7"/>
													
														<ellipse transform="matrix(-0.7808 0.6247 -0.6247 -0.7808 477.3033 1003.8583)" class="st9" cx="62.6" cy="585.6" rx="2.9" ry="7.8"/>
													
														<ellipse transform="matrix(-0.7809 0.6247 -0.6247 -0.7809 543.6356 1012.7727)" class="st9" cx="94.2" cy="601.7" rx="2.9" ry="7.8"/>
													<path class="st9" d="M99.4,663.4L99.4,663.4c-0.2,0-0.3-0.2-0.3-0.4c0.1-0.4,9-40.9,26.2-52.7c0.1-0.1,0.3-0.1,0.4,0.1
														c0.1,0.1,0.1,0.3-0.1,0.4c-17,11.6-25.9,51.9-26,52.3C99.7,663.3,99.6,663.4,99.4,663.4z"/>
													
														<ellipse transform="matrix(-0.6875 -0.7262 0.7262 -0.6875 -219.7155 1116.6981)" class="st9" cx="130.4" cy="605.6" rx="3.6" ry="9.7"/>
													<g>
														<g>
															<path class="st9" d="M74.4,680.5c0,0-10.1-35.6-1.6-64.6c0,0-3.6,44.4,7.2,64.6H74.4z"/>
															<path class="st9" d="M111.7,680.5c0,0-9.5-26.4-1.1-55.5c0,0-4.1,35.2,6.7,55.5H111.7z"/>
															<path class="st9" d="M140.1,680.5c0,0-0.1-14.8,15.5-42.2c0,0-12.7,23.8-10,42.2H140.1z"/>
															<path class="st9" d="M147.3,680.5c0,0,1.2-22.2,16.7-34.3c0,0-14.6,17.4-11.2,34.3H147.3z"/>
															<path class="st9" d="M152.1,680.5c0,0,4.9-13.8,14.2-18.4c0,0-10,11.2-10,18.4H152.1z"/>
															<path class="st9" d="M157.1,680.5c0,0,7.3-14.4,21.3-18.8c0,0-16.5,12.7-15.9,18.8H157.1z"/>
															<path class="st9" d="M165.2,680.5c0,0,7.4-11.4,17.7-8.5c0,0-10.1,1.7-11.2,8.5H165.2z"/>
															<path class="st9" d="M128.6,630.8c0,0,0.7,37.2,6.5,49.7h7.5c0,0-4.6-23.4-0.7-36.1c0,0-5.4,20.4-3.5,33.8
																C138.3,678.2,129.4,653.4,128.6,630.8z"/>
															<path class="st9" d="M119.2,680.5c0,0,1.5-29.1,19.9-40.7c0,0-13.6,12.5-16.2,40.7H119.2z"/>
														</g>
														<g>
															<path class="st9" d="M90,680.5c0,0-5-28.9,3.4-58c0,0-8.6,37.7,2.2,58H90z"/>
															<path class="st9" d="M118.3,680.5c0,0-0.1-18.8,7.8-48.5c0,0-5,30.1-2.3,48.5H118.3z"/>
															<path class="st9" d="M125.6,680.5c0,0,1.2-22.2,16.7-34.3c0,0-14.6,17.4-11.2,34.3H125.6z"/>
															<path class="st9" d="M144.6,662.1c0,0-10,11.2-10,18.4h-4.2"/>
															<path class="st9" d="M135.3,680.5c0,0,5.5-12.8,16.5-13.3c0,0-11.7,7.2-11.1,13.3H135.3z"/>
															<path class="st9" d="M143.5,680.5c0,0,7.5-11.4,17.8-8.5c0,0-10.1,1.7-11.3,8.5H143.5z"/>
															<path class="st9" d="M107.4,630.7c0,0,0.1,37.3,5.9,49.8h7.5c0,0-4.6-23.4-0.7-36.1c0,0-5.4,20.4-3.5,33.8
																C116.6,678.2,108.2,653.3,107.4,630.7z"/>
															<path class="st9" d="M97.4,680.5c0,0,1.5-29.1,19.9-40.7c0,0-13.6,12.5-16.2,40.7H97.4z"/>
															<path class="st9" d="M79.7,680.5c0,0,9.7-32.3,33-41.1c0,0-22.4,16.3-28.3,41.1H79.7z"/>
														</g>
													</g>
												</g>
											</g>
											<g>
												<g>
													<path class="st9" d="M190.1,669.7L190.1,669.7c-0.2,0-0.3-0.1-0.3-0.3c0-0.6,1.4-65,22.5-79.2c0.1-0.1,0.3-0.1,0.4,0.1
														c0.1,0.1,0.1,0.3-0.1,0.4c-20.8,14-22.3,78.1-22.3,78.7C190.5,669.6,190.3,669.7,190.1,669.7z"/>
													<path class="st9" d="M176.2,657.5c-0.2,0-0.3-0.1-0.3-0.3c0-0.3-0.8-26.6-13.4-47.4c-0.1-0.1,0-0.3,0.1-0.4
														c0.1-0.1,0.3,0,0.4,0.1c12.7,20.9,13.5,47.5,13.5,47.7C176.5,657.3,176.4,657.5,176.2,657.5L176.2,657.5z"/>
													<path class="st9" d="M160.6,662c-0.1,0-0.3-0.1-0.3-0.3c-0.1-0.5-10.1-52.8-29.3-68.5c-0.1-0.1-0.2-0.3,0-0.4
														c0.1-0.1,0.3-0.2,0.4,0c19.3,15.8,29.4,68.3,29.5,68.9C160.9,661.8,160.8,662,160.6,662L160.6,662z"/>
													
														<ellipse transform="matrix(-0.6875 -0.7261 0.7261 -0.6875 -58.5305 1145.9568)" class="st9" cx="217.3" cy="585.6" rx="3.6" ry="9.7"/>
													<path class="st9" d="M129.5,586.4c2.7,3.4,3.8,6.9,2.6,7.9c-1.3,1-4.5-0.9-7.1-4.3c-2.7-3.4-3.8-6.9-2.6-7.9
														S126.8,583,129.5,586.4z"/>
													
														<ellipse transform="matrix(-0.7809 0.6247 -0.6247 -0.7809 660.243 976.9526)" class="st9" cx="158.8" cy="604.3" rx="2.9" ry="7.8"/>
													<path class="st9" d="M164.1,665.9C164.1,665.9,164,665.9,164.1,665.9c-0.2,0-0.3-0.2-0.3-0.4c0.1-0.4,9-40.9,26.2-52.7
														c0.1-0.1,0.3-0.1,0.4,0.1c0.1,0.1,0.1,0.3-0.1,0.4c-17,11.6-25.9,51.9-26,52.3C164.3,665.8,164.2,665.9,164.1,665.9z"
														/>
													
														<ellipse transform="matrix(-0.6875 -0.7261 0.7261 -0.6875 -112.3071 1167.7947)" class="st9" cx="195.1" cy="608.1" rx="3.6" ry="9.7"/>
												</g>
											</g>
											<g>
												<g>
													<path class="st9" d="M281.8,676.5L281.8,676.5c-0.2,0-0.3-0.1-0.3-0.3c0-0.6,1.4-65,22.5-79.2c0.1-0.1,0.3-0.1,0.4,0.1
														c0.1,0.2,0.1,0.3-0.1,0.4c-20.8,14-22.3,78.1-22.3,78.7C282.1,676.4,281.9,676.5,281.8,676.5z"/>
													<path class="st9" d="M267.8,664.2c-0.2,0-0.3-0.1-0.3-0.3c0-0.3-0.8-26.6-13.4-47.4c-0.1-0.1,0-0.3,0.1-0.4
														c0.1-0.1,0.3,0,0.4,0.1c12.7,20.9,13.5,47.5,13.5,47.7S268,664.2,267.8,664.2L267.8,664.2z"/>
													<path class="st9" d="M252.2,668.8c-0.1,0-0.3-0.1-0.3-0.3c-0.1-0.5-10.1-52.8-29.3-68.5c-0.1-0.1-0.2-0.3,0-0.4
														c0.1-0.1,0.3-0.2,0.4,0c19.3,15.8,29.4,68.3,29.5,68.9C252.5,668.6,252.4,668.8,252.2,668.8L252.2,668.8z"/>
													
														<ellipse transform="matrix(-0.6875 -0.7261 0.7261 -0.6875 91.13 1223.9403)" class="st9" cx="308.9" cy="592.4" rx="3.6" ry="9.7"/>
													<path class="st9" d="M221.1,593.2c2.7,3.4,3.8,6.9,2.6,7.9c-1.3,1-4.5-0.9-7.1-4.3c-2.7-3.4-3.8-6.9-2.6-7.9
														C215.3,587.9,218.4,589.8,221.1,593.2z"/>
													
														<ellipse transform="matrix(-0.7809 0.6247 -0.6247 -0.7809 827.6299 931.8917)" class="st9" cx="250.4" cy="611.1" rx="2.9" ry="7.8"/>
													<path class="st9" d="M255.7,672.7C255.7,672.7,255.6,672.7,255.7,672.7c-0.2,0-0.3-0.2-0.3-0.4
														c0.1-0.4,9-40.9,26.2-52.7c0.1-0.1,0.3-0.1,0.4,0.1c0.1,0.1,0.1,0.3-0.1,0.4c-17,11.6-25.9,51.9-25.9,52.3
														C256,672.6,255.8,672.7,255.7,672.7z"/>
													<path class="st9" d="M289.2,617.5c-3.9,3.7-8.2,5.5-9.6,4s0.7-5.6,4.5-9.3c3.9-3.7,8.2-5.5,9.6-4
														C295.2,609.6,293.1,613.8,289.2,617.5z"/>
												</g>
											</g>
											<g>
												<g>
													<path class="st9" d="M125.5,679.4c0,0-15.7-34.2-1.9-72c0,0-6.8,45.8,11,72H125.5z"/>
													<path class="st9" d="M215.7,679.4c0,0,1.4-28.9,19.4-44.6c0,0-14.6,29.8-13,44.6H215.7z"/>
													<path class="st9" d="M227.5,679.4c0,0,8.1-17.9,23.3-23.9c0,0-16.4,14.6-16.4,23.9H227.5z"/>
													<path class="st9" d="M235.6,679.4c0,0,9-16.6,27.1-17.3c0,0-19.1,9.4-18.3,17.3H235.6z"/>
													<path class="st9" d="M248.9,679.4c0,0,14.3-16.2,38.7-14.1c0,0-23.9,1.9-27.9,14.1H248.9z"/>
													<path class="st9" d="M189.8,614.7c0,0,0.1,48.5,9.7,64.7h12.2c0,0-7.6-30.4-1.2-46.9c0,0-9.3,18.7-6.2,36.1
														C204.4,668.7,191.1,644.1,189.8,614.7z"/>
													<path class="st9" d="M173.3,679.4c0,0,2.5-37.9,32.6-52.9c0,0-22.4,16.2-26.6,52.9H173.3z"/>
													<path class="st9" d="M144.2,679.4c0,0,15.9-42,54.2-53.4c0,0-36.8,21.1-46.5,53.4H144.2z"/>
													<path class="st9" d="M207.7,679.4c0,0,1.8-36.5,27.4-72.2c0,0-22.8,48.2-18.3,72.2H207.7z"/>
												</g>
											</g>
											<g>
												<g>
													<path class="st9" d="M249.6,679.4c0,0-12.4-35.6-2-64.6c0,0-4.5,44.4,8.9,64.6H249.6z"/>
													<path class="st9" d="M295.7,679.4c0,0-11.8-26.4-1.4-55.5c0,0-5.1,35.2,8.3,55.5H295.7z"/>
													<path class="st9" d="M330.6,679.4c0,0-0.1-14.8,19.2-42.2c0,0-15.6,23.8-12.3,42.2H330.6z"/>
													<path class="st9" d="M339.6,679.4c0,0,1.5-22.2,20.6-34.3c0,0-18,17.4-13.8,34.3H339.6z"/>
													<path class="st9" d="M345.5,679.4c0,0,6.1-13.8,17.5-18.4c0,0-12.3,11.2-12.3,18.4H345.5z"/>
													<path class="st9" d="M351.7,679.4c0,0,9-14.4,26.3-18.8c0,0-20.4,12.7-19.7,18.8H351.7z"/>
													<path class="st9" d="M361.7,679.4c0,0,9.1-11.4,21.9-8.5c0,0-12.5,1.7-13.8,8.5H361.7z"/>
													<path class="st9" d="M316.5,629.8c0,0,0.8,37.2,8,49.7h9.2c0,0-5.7-23.4-0.9-36.1c0,0-6.7,20.4-4.3,33.8
														C328.5,677.2,317.5,652.3,316.5,629.8z"/>
													<path class="st9" d="M304.9,679.4c0,0,1.9-29.1,24.5-40.7c0,0-16.8,12.5-20,40.7H304.9z"/>
													<path class="st9" d="M283,679.4c0,0,12-32.3,40.7-41.1c0,0-27.7,16.3-34.9,41.1H283z"/>
												</g>
											</g>
											<g>
												<g>
													<path class="st9" d="M222.8,679.4c0,0-11.8-26.4-1.4-55.5c0,0-5.1,35.2,8.3,55.5H222.8z"/>
													<path class="st9" d="M268.9,679.4c0,0-6.2-28.9,4.1-58c0,0-10.6,37.7,2.7,58H268.9z"/>
													<path class="st9" d="M303.8,679.4c0,0-0.1-18.8,9.7-48.5c0,0-6.1,30.1-2.8,48.5H303.8z"/>
													<path class="st9" d="M312.8,679.4c0,0,1.5-22.2,20.6-34.3c0,0-18,17.4-13.8,34.3H312.8z"/>
													<path class="st9" d="M318.7,679.4c0,0,6.1-13.8,17.5-18.4c0,0-12.3,11.2-12.3,18.4H318.7z"/>
													<path class="st9" d="M324.8,679.4c0,0,6.7-12.8,20.4-13.3c0,0-14.4,7.2-13.7,13.3H324.8z"/>
													<path class="st9" d="M334.8,679.4c0,0,9.2-11.4,21.9-8.5c0,0-12.5,1.7-13.9,8.5H334.8z"/>
													<path class="st9" d="M290.4,629.7c0,0,0.1,37.3,7.3,49.8h9.2c0,0-5.7-23.4-0.9-36.1c0,0-6.7,20.4-4.3,33.8
														C301.7,677.2,291.4,652.2,290.4,629.7z"/>
													<path class="st9" d="M278.1,679.4c0,0,1.9-29.1,24.5-40.7c0,0-16.8,12.5-20,40.7H278.1z"/>
													<path class="st9" d="M256.2,679.4c0,0,12-32.3,40.7-41.1c0,0-27.7,16.3-34.9,41.1H256.2z"/>
												</g>
											</g>
										</g>
									</g>
								</g>
							</g>
						</g>
						<g>
							<g>
								<g>
									<path class="st8" d="M461.5,371.3c0.8-3.4-5.8-8.9-10.8-5.2c-7.3,5.4-2.6,18.3,5.2,23c0,0,13.6-1.2,17-9.5
										C478,367.2,462.5,367.2,461.5,371.3z"/>
								</g>
								<g>
									<g>
										<path class="st8" d="M403.1,519.1c0,0,10.1,0.3,10.2,2.9c0.9,19.2-20.8,39.8-20.8,39.8l-4.8-3c0,0,0.1-9.9,7.3-19.1
											c0.4-0.5,0.8-2,1-2.7c1.4-4.9,2-11.2,3.9-15.4C400.4,520.6,403.1,519.1,403.1,519.1z"/>
										<path class="st8" d="M392.9,561.7c0.1-1.4-4.2-5.1-6-3.9c-0.4,0.2-0.1,0.8-0.1,0.8s2.7,3.4,5.2,4
											C392.3,562.7,392.8,562,392.9,561.7z"/>
										<g>
											<g>
												<path class="st8" d="M382.2,562.3c0,0-2.6,1.3-1.9,4.2s2.9,5.1,5.4,6.6s6.9,4.3,10.6,2.3s-1-3.6-2-3.4
													C393.2,572,382.2,562.3,382.2,562.3z"/>
												<path class="st8" d="M390,562.1c0,0,2.6,0.8,3.6,6.9c0,0,4,0.8,3.5,4.4c0,0-2.7,4-10-0.9c-9.2-6.2-4.6-10.9-4.6-10.9
													s1.9-2.6,4.7-2C390.4,560.4,390,562.1,390,562.1z"/>
											</g>
											<g>
												<path class="st8" d="M385.6,560.6c0.1-0.2,1.4-1.3,1.7-2c1.3,0.3,2.6,1.5,4.2,3.1c-0.3,0.3-0.8,0.6-0.8,0.9
													C392.9,567.9,385.5,563.1,385.6,560.6z"/>
												<path class="st8" d="M390.4,564.3"/>
											</g>
										</g>
									</g>
									<g>
										<path class="st8" d="M423.3,509.4c0,0-0.4,10.6-4.5,30.3c-1.7,8.2-5.7,16.4-10.9,30.4l-6.6-1.1c0,0-0.6-17.5,1.4-27.8
											c0.5-2.4-3.6-13.6-4.8-17.5c-0.4-1.2-10.6-7.3-8.2-19.1L423.3,509.4z"/>
										<path class="st8" d="M408.3,569.2c-0.6-1.4-6.3-2.6-7.3-0.6c-0.2,0.4,0.3,0.8,0.3,0.8s4.1,1.8,6.6,1.1
											C408.3,570.5,408.5,569.5,408.3,569.2z"/>
										<g>
											<g>
												<path class="st8" d="M401.8,571.6c0-0.2,0.5-2.1,0.4-2.8c1.3-0.4,3.1,0,5.3,0.8c-0.1,0.4-0.5,1.1-0.4,1.5
													C412.3,574.4,402.8,573.8,401.8,571.6z"/>
												<path class="st8" d="M407.1,571.1"/>
											</g>
											<g>
												<path class="st8" d="M399.7,574.6c0,0-2.8,2.9,3,5.4c7.5,3.1,17.7,3.3,15.4-1.3C415.8,574,399.7,574.6,399.7,574.6z"/>
												<path class="st8" d="M401,572l0.8-0.4c1.1,2.2,10.5,2.8,5.4-0.5c5,1.6,11.3,4.3,11.1,8.2c0,0.2-0.1,0.7-0.4,1.1
													c-0.3,0.4-0.9,0.7-1.1,0.8c-5.2,1.7-17-2.5-17.3-4.9C399,573.5,401,572,401,572z"/>
											</g>
										</g>
									</g>
									<g>
										<path class="st8" d="M397.8,464.7c0,0,18.4-2.4,24.2,2.5c3.8,13.4,5.6,21.6,5.8,44.7c0,0.3-0.2,1.1-0.7,1.2
											c-3.8,0.9-22.1,4.4-39.8-1.6c-0.4-0.1-1-0.9-0.9-1.7c0.6-3.1,2-11.2,3.7-21.3C391.3,482.2,394,469.1,397.8,464.7z"/>
									</g>
									<g>
										<path class="st8" d="M408.7,476.6c5.5,1.2,8.8,5.3,18,16.5c0.4,0.5,2.7,2.8,3.8,3.5c3.6,2.1,9.4,4.3,14.1,7.1
											c0,0,2.7-0.7,5.6,0c2.5,0.6,3.2,1.4,3.1,2.1c-0.1,0.5-0.5,1-2.7,0.6c0,0.1-0.1,0.1,0,0.1c1,0.8,2.6,1.9,3.3,3
											c2.3,4-3.1,5.4-6.6,3.6c-3.2-1.7-5.5-5.1-5.5-5.1s-17.4-4.3-18.9-5.7c-6.3-5.5-13-11.9-15.4-15.9
											C402.2,478.1,404.7,475.7,408.7,476.6z"/>
										<path class="st8" d="M407.4,466.5c5.5,1.3,8.7,5.4,17.8,16.7c0.4,0.5,2.7,2.8,3.8,3.5c3.6,2.2,9.4,4.4,14,7.2
											c0,0,2.7-0.7,5.6,0.1c2.5,0.6,3.2,1.4,3.1,2.1c-0.1,0.5-0.5,1-2.7,0.6c0,0.1-0.1,0.1,0,0.1c1,0.8,2.6,1.9,3.2,3
											c2.2,4-3.2,5.4-6.6,3.5c-3.2-1.7-6.1-4.8-6.1-4.8s-16.7-4.8-18.2-6.1c-6.2-5.6-12.9-12.1-15.3-16
											C400.9,467.9,403.4,465.6,407.4,466.5z"/>
									</g>
									<g>
										<g>
											<path class="st8" d="M441.4,415c-0.2-0.6-0.5-1.2-0.8-1.8l0,0C440.9,413.8,441.2,414.4,441.4,415z"/>
										</g>
										<path class="st11" d="M381.8,398.2c4.9-5.4,9.3-9.5,14.2-11.8c7.3-3.4,15.4-3.3,25.4,0.3c-15.3-6.4-27.9-3.1-40.8,11
											c0,0,0.7-4,5.5-5.6c1-0.4-1-0.4-3.7,0.8c-2.2,1-3,3.9-2.7,5.7C379.8,399.6,381,399.1,381.8,398.2z"/>
									</g>
								</g>
								<g>
									<g>
										<path class="st8" d="M482,473.7c-6.7,1.5-3.4,8.6-13.2,13.9c-4.6,2.5-8.2,3.5-14.5,6c0,0-6.9-3.5-8.8,0.2
											c-0.3,0.6-1.6,4.9,0.8,4.9c2.2,0.1,3.7-1.7,5.9,0c1.1,0.8,3.7-1.4,3.7-1.4s8.3,0.5,16.3-2.3c5.6-1.9,11.1-6.4,13.5-9.2
											C491.6,479.2,488.6,472.2,482,473.7z"/>
									</g>
									<g>
										<path class="st8" d="M533.4,509.4c-8.2-5.1-27.3-19.2-36.6-40c0,0-1.9-3.5-13.2-2.9c-10.5,0.6-9.6-0.6-10.7,3
											c-3.3,10.2-3.1,47.8,1.6,62.4c0.1,0.4,0.2,1.1,0.6,1.1c1.3-0.1,4.1-0.3,7.9-0.7c0.5,5.7,1,11.3,1.4,14.5
											c0.5,4.4,3.1,16.2,4.3,21.3c-1.2,0.2-3.1,1.1-4.6,2.1c-2.4,1.6-2.6,2.3-5.7,2.6c-0.8,0.1-2.3-0.1-2.1,1.1l0,0
											c0,0-0.4,2.3,2,3.5c2.3,1.3,3.5,0.2,5.8-0.4c2.3-0.6,5.3-0.2,7.5-0.3s5-1,3.7-4.2c0-0.1-0.1-0.2-0.2-0.3
											c-0.1-0.9-0.4-1.9-0.8-3.1c-0.1-0.2-0.6-0.6-0.8-0.9c0,0,0.5-11.4,0-20.6c0.2-0.6,0.3-1.3,0.4-1.9
											c4.4,4.3,16.4-1.9,22.5-5c0.2-0.1,0.3,0.1,0.5,0.2c-0.1,0.1,1,3.3,2.1,4.7c1.7,2.2,2.6,2.5,2.9,5.5
											c0.1,0.8-0.4,2.2,0.8,2.1l0,0c0,0,2.2,0.3,3.4-1.9c1.2-2.3,0.2-3.4-0.4-5.6c-0.6-2.3-0.2-5.1-0.3-7.3
											c-0.1-2-1.4-4.2-3.5-3.5c-1,0-2.4,0.2-4,0.8c-0.4,0.2-0.5,0.8-0.5,0.9c-4,0.2-13,0.8-15.6,3.7c0.7-3.8,1.3-7.8,1.6-11.9
											c11.2-3,23.3-8.1,31-16.3C535.1,511.2,535.5,510.7,533.4,509.4z"/>
									</g>
									<g>
										<path class="st8" d="M486.2,478.6c0,0-6.7,6.1-13.5,13.4c-4.1,2.4-7.6,6-11.8,9.9c-0.2,0.2-1,0.5-1.5,0.4
											c-0.7-0.1-1.7-0.2-2.5-0.2c-1.3,0.1-4,0.9-3.7,2.1c0.2,0.8,1.3,1.2,2.3,0.6c0.4,0.3,0.4,0.5,0.4,0.6
											c-2.4,1.8-5.6-0.1-5.5,2.6c0.2,3.9,8.1,4.6,10.2,3c2.2-1.7,2.2-4.1,2.2-4.1s23.2-10.1,26.5-18.7
											C492.5,479.6,488.8,476.2,486.2,478.6z"/>
									</g>
									<path class="st8" d="M486.7,471.4c-3.5,0.2-6.9,0-9.9-0.5c-6.5-1.1-11.7-3.2-15.8-5.9c-5.8-3.9-9.4-9.2-11.2-15.5
										c0-0.2-2-0.9-2.3-2c-0.5-1.5,0.5-2.5,1.3-2.1c-0.4-0.5-1.3-0.8-1.4-1.9c-0.2-2.1,0.9-1.4,1.5-3.3s-2.1-3.1-1.2-5.4
										c0.6-1.4,3.4-2.5,3.6-4.2c0.3-3.6,1.3-9.6,5.4-13.5c-3.3-1.9-3.1-3.7,3.6-9c9.5-7.6,28.8-8,40.1-3.5
										c9.7,3.8,22.8,14.5,18.4,37.8C514.8,462.6,500.8,470.5,486.7,471.4z"/>
									<path class="st8" d="M447.5,405.8c-2.5,1.6-4.1,1.7-4.4,0.2c-0.1-0.7,3.4-2.8,4.5-6.8c0.6-2,0.2-5-0.6-7.7
										c-5.8,3.6-12.8,1.5-22-3.2c-17-8.5-30.6-5.9-44.5,9.3c0,0,0.7-4,5.5-5.6c2.1-0.7-10.2-1.4-8.7,6.8c0,0-3.8-3-6.3,0.5
										c3-0.3,3.6,2,3.6,2s-4.8-1.6-6.8,2.5c-0.2,0.4,0.3,0.9,0.3,0.5c0.3-2.6,4.3-1.8,4.7-1c-2.7,0.7-5.6,4.6-8.2,9.5
										c-2.9,5.5-4.6,12.7-0.3,25.8c5.1,15.5,14.8,17,16.3,18c5.1,4.4,11.7,8.9,19.3,10.9c2.3,0.6,4.6,1.1,7,1.3
										c3.5,0.3,6.9,0.3,10-0.2c6.5-0.9,11.8-2.8,16-5.3c6-3.7,9.7-8.9,11.7-15.1c0.1-0.2,2-0.8,2.4-1.9c0.5-1.5-0.4-2.5-1.2-2.2
										c0.4-0.5,1.6-1,1.7-2.1c0.2-2.1-1.1-1.1-1.6-3.1s2.4-3.3,1.5-5.7c-0.5-1.4-1.6-1.9-2.6-3.3c-0.2-2-0.4-3.3-0.7-5.4
										c-0.6-3.5-1.5-6.7-2.6-9.5c0.7-0.4,1.3-0.7,2-1.1C446.2,412.2,448.5,409,447.5,405.8z"/>
									<g>
										<path class="st8" d="M449.9,440.3C449.9,440.2,449.9,440.2,449.9,440.3C449.9,440.2,449.9,440.2,449.9,440.3z"/>
									</g>
									<path class="st8" d="M537.2,478.5c-4.3,6.3-13.3,7.3-19.9,4.3c-0.1,0-0.2-0.1-0.3-0.1c-6.6-3-13.8-9-14.4-19.2
										c-0.4-6.1,3.3-21.4,6.5-33c2.2-8.1,4-14.3,4-14.3s12.4-3.1,19.8,2.9s9,12.2,0.5,30.8c-8.5,18.5-6,20.6-3.9,24
										c2.2,3.4,8.3,1.9,7.1-5.7C535.4,460.5,541.6,472.1,537.2,478.5z"/>
									<path class="st8" d="M482,473.7"/>
									<path class="st8" d="M449.9,422.4"/>
								</g>
							</g>
						</g>
					</g>
				</g>
			</g>
		</g>
	</g>
</g>
</svg>
